<svg width="19" height="14" viewBox="0 0 19 14" fill="none" xmlns="http://www.w3.org/2000/svg">
<path d="M0.465766 7.13284C0.465745 7.68514 0.913467 8.13288 1.46577 8.13288H2.52826C3.08053 8.13288 3.52824 7.68518 3.52826 7.13292L3.52827 6.96305C3.52829 6.41075 3.08057 5.96301 2.52827 5.96301H1.46577C0.913501 5.96301 0.465792 6.41071 0.465772 6.96298L0.465766 7.13284ZM0.465809 12.1301C0.465809 12.6824 0.913524 13.1301 1.46581 13.1301H2.52831C3.08059 13.1301 3.52831 12.6824 3.52831 12.1301V11.8507C3.52831 11.2984 3.08059 10.8507 2.52831 10.8507H1.46581C0.913524 10.8507 0.465809 11.2984 0.465809 11.8507V12.1301ZM0.465809 2.06987C0.465809 2.62215 0.913524 3.06987 1.46581 3.06987H2.52831C3.08059 3.06987 3.52831 2.62215 3.52831 2.06987V1.98767C3.52831 1.43539 3.08059 0.987671 2.52831 0.987671H1.46581C0.913524 0.987671 0.465809 1.43539 0.465809 1.98767V2.06987ZM5.05854 7.13284C5.05852 7.68514 5.50624 8.13288 6.05854 8.13288H17.0585C17.6108 8.13288 18.0585 7.68518 18.0585 7.13291L18.0585 6.96305C18.0586 6.41075 17.6108 5.96301 17.0585 5.96301H6.05855C5.50628 5.96301 5.05857 6.41071 5.05855 6.96298L5.05854 7.13284ZM5.05858 12.1301C5.05858 12.6824 5.5063 13.1301 6.05858 13.1301H17.0586C17.6109 13.1301 18.0586 12.6824 18.0586 12.1301L18.0586 11.8507C18.0586 11.2984 17.6109 10.8507 17.0586 10.8507H6.05858C5.5063 10.8507 5.05858 11.2984 5.05858 11.8507V12.1301ZM6.05858 0.987671C5.5063 0.987671 5.05858 1.43539 5.05858 1.98767L5.05858 2.06987C5.05858 2.62215 5.5063 3.06987 6.05858 3.06987H17.0586C17.6109 3.06987 18.0586 2.62216 18.0586 2.06987L18.0586 1.98767C18.0586 1.43539 17.6109 0.987671 17.0586 0.987671H6.05858Z" fill="white"/>
</svg>
